PathFileType	4	(X/Y/Z)	two_link_pedal_003.trc
DataRate	CameraRate	NumFrames	NumMarkers	Units	OrigDataRate	OrigDataStartFrame	OrigNumFrames
100	100	6	2	m	100	1	7	
Frame#	Time	Link2_Marker_1			Link1_Marker_1		
		X1	Y1	Z1	X2	Y2	Z2

11	0.100000000	0.271010786	0.293937555	0.000000000	0.050000000	0.250000000	0.000000000
12	0.110000000	0.284662731	0.295150044	0.000000000	0.050000000	0.250000000	0.000000000
13	0.120000000	0.298314676	0.296362533	0.000000000	0.050000000	0.250000000	0.000000000
14	0.130000000	0.311966620	0.297575022	0.000000000	0.050000000	0.250000000	0.000000000
15	0.140000000	0.325618565	0.298787511	0.000000000	0.050000000	0.250000000	0.000000000
16	0.150000000	0.339270510	0.300000000	0.000000000	0.050000000	0.250000000	0.000000000
